<svg version="1.1" xmlns="http://www.w3.org/2000/svg" height="1024" width="1024" viewBox="0 0 1024 1024"><path d="M503.808 921.6c-30.72-27.8528-63.3856-54.1696-92.16-83.968-33.3824-34.304-54.272-74.752-33.1776-123.904s65.536-58.368 113.9712-55.296c9.0112 0.512 18.1248 0 37.2736 0-36.864-41.6768-68.8128-79.0528-102.4-115.3024s-43.8272-66.8672-5.9392-112.64c72.9088-87.552 84.992-183.296 10.24-279.552A149.0944 149.0944 0 0 1 416.5632 122.88c-1.1264-2.4576 0.8192-6.4512 3.072-20.48 20.48 24.2688 37.888 43.3152 54.1696 63.0784s31.8464 45.2608 51.2 63.7952c76.4928 71.68 108.9536 140.8 28.3648 236.544-48.3328 57.344-28.4672 128.3072 15.872 187.392 24.6784 32.8704 51.2 64.6144 84.5824 106.8032-37.9904-6.7584-63.7952-18.2272-86.4256-13.7216-30.72 6.2464-71.68 17.1008-86.2208 39.936-12.288 19.1488 5.12 58.6752 12.288 88.4736A267.5712 267.5712 0 0 0 514.7648 921.6z"></path></svg>